<svg width="31" height="29" viewBox="0 0 31 29" fill="none" xmlns="http://www.w3.org/2000/svg">
<path d="M27.8891 27.2931H29.0178C29.0178 27.2993 29.0178 27.3056 29.0178 27.3118C29.0166 27.3147 29.0134 27.3202 29.0074 27.3262C29.0014 27.3322 28.9959 27.3354 28.993 27.3366H2.00699C2.00414 27.3354 1.99861 27.3322 1.99263 27.3262C1.98665 27.3202 1.98344 27.3147 1.98218 27.3118C1.98218 27.3056 1.98219 27.2993 1.9822 27.2931H3.11089H27.8891ZM29.0167 27.172L28.8801 26.1594C28.3039 21.8857 24.6973 18.6089 20.2683 18.6089H10.7317C6.30266 18.6089 2.69609 21.8857 2.11986 26.1594L1.98334 27.172C2.06034 22.4251 5.96732 18.5653 10.7317 18.5653H20.2683C25.0327 18.5653 28.9397 22.4251 29.0167 27.172ZM22.2059 8.45445C22.2059 12.1632 19.2016 15.203 15.4574 15.203C11.7204 15.203 8.70891 12.1277 8.70891 8.41188C8.70891 4.70315 11.7133 1.66336 15.4574 1.66336C19.1945 1.66336 22.2059 4.73858 22.2059 8.45445ZM22.1624 8.41188C22.1624 4.7091 19.1602 1.70692 15.4574 1.70692C11.745 1.70692 8.75247 4.76136 8.75247 8.45445C8.75247 12.167 11.7644 15.1168 15.4574 15.1168C19.1602 15.1168 22.1624 12.1147 22.1624 8.41188Z" fill="black" stroke="black" stroke-width="2"/>
</svg>
