<svg id="Layer_1" data-name="Layer 1" xmlns="http://www.w3.org/2000/svg" width="181.6751" height="35.5918" viewBox="0 0 181.6751 35.5918"><defs><style>.cls-1{fill:#111;}.cls-2{fill:#303030;}</style></defs><path class="cls-1" d="M31.25,27.1687v8.3159h11.167V40.76H31.25v8.791H43.8426v5.417H24.5974V21.7517H43.8426v5.417Z" transform="translate(-24.5974 -19.8034)"/><path class="cls-1" d="M56.5305,19.8034V54.9675H49.8777V19.8034Z" transform="translate(-24.5974 -19.8034)"/><path class="cls-1" d="M87.37,43.8005H68.1248A6.5418,6.5418,0,0,0,70.12,48.2673a6.154,6.154,0,0,0,4.3242,1.6157A5.4319,5.4319,0,0,0,79.72,46.6989h7.1753a11.99,11.99,0,0,1-4.3716,6.2491,12.7632,12.7632,0,0,1-7.936,2.4472,13.7263,13.7263,0,0,1-6.8189-1.687,11.86,11.86,0,0,1-4.7045-4.7759,14.6292,14.6292,0,0,1-1.6866-7.1274A14.9008,14.9008,0,0,1,63.04,34.6291a11.6094,11.6094,0,0,1,4.6568-4.7519A14.9523,14.9523,0,0,1,81.3113,29.83a11.3752,11.3752,0,0,1,4.6094,4.5854,13.88,13.88,0,0,1,1.64,6.8194A15.7221,15.7221,0,0,1,87.37,43.8005Zm-6.7-4.4668a5.2763,5.2763,0,0,0-1.853-4.11,6.57,6.57,0,0,0-4.4195-1.5444A6.0384,6.0384,0,0,0,70.24,35.1755a6.5809,6.5809,0,0,0-2.0673,4.1582Z" transform="translate(-24.5974 -19.8034)"/><path class="cls-1" d="M92.3592,34.653a11.8828,11.8828,0,0,1,4.6093-4.7519,13.3407,13.3407,0,0,1,6.7476-1.687,12.9742,12.9742,0,0,1,8.102,2.4472,11.9077,11.9077,0,0,1,4.3,6.8667h-7.1753a5.2468,5.2468,0,0,0-1.9243-2.685,5.59,5.59,0,0,0-3.35-.9741,5.4864,5.4864,0,0,0-4.5146,2.0673,9.1487,9.1487,0,0,0-1.6631,5.8687,9.0626,9.0626,0,0,0,1.6631,5.8208,5.4879,5.4879,0,0,0,4.5146,2.0674,5.0463,5.0463,0,0,0,5.2744-3.6118h7.1753a12.1439,12.1439,0,0,1-4.3242,6.7954,12.7385,12.7385,0,0,1-8.0781,2.5185,13.3306,13.3306,0,0,1-6.7476-1.687,11.8765,11.8765,0,0,1-4.6093-4.7519,14.7586,14.7586,0,0,1-1.6631-7.1514A14.7606,14.7606,0,0,1,92.3592,34.653Z" transform="translate(-24.5974 -19.8034)"/><path class="cls-1" d="M128.7586,34.1066V46.8415a2.5161,2.5161,0,0,0,.6416,1.9248,3.1483,3.1483,0,0,0,2.1621.5938h3.0889v5.6074H130.47q-8.4111,0-8.4111-8.1734V34.1066h-3.1362V28.6418h3.1362v-6.51h6.7v6.51h5.8926v5.4648Z" transform="translate(-24.5974 -19.8034)"/><path class="cls-1" d="M149.4524,29.4494a9.3257,9.3257,0,0,1,4.7281-1.188v6.9854h-1.7583a6.7413,6.7413,0,0,0-4.7281,1.4731q-1.593,1.4736-1.5918,5.1324V54.9675H139.45V28.6418h6.6528v4.0869A9.36,9.36,0,0,1,149.4524,29.4494Z" transform="translate(-24.5974 -19.8034)"/><path class="cls-1" d="M158.5281,34.6291a11.6682,11.6682,0,0,1,4.3242-4.7519,11.5126,11.5126,0,0,1,6.106-1.6631,10.7354,10.7354,0,0,1,5.1562,1.188,10.4787,10.4787,0,0,1,3.54,2.9936V28.6418h6.6992V54.9675h-6.6992V51.1184a9.9035,9.9035,0,0,1-3.54,3.0649,10.8351,10.8351,0,0,1-5.2041,1.2119,11.1836,11.1836,0,0,1-6.0581-1.7109,11.96,11.96,0,0,1-4.3242-4.8233,15.4764,15.4764,0,0,1-1.5918-7.1513A15.2293,15.2293,0,0,1,158.5281,34.6291Zm18.1753,3.0176a6.7065,6.7065,0,0,0-2.5654-2.6611,6.8591,6.8591,0,0,0-3.4688-.9268,6.6814,6.6814,0,0,0-5.9638,3.5405,8.2619,8.2619,0,0,0-.9742,4.11,8.5309,8.5309,0,0,0,.9742,4.1577A7,7,0,0,0,167.2718,48.6a6.5062,6.5062,0,0,0,3.3974.9507,6.8591,6.8591,0,0,0,3.4688-.9268,6.7039,6.7039,0,0,0,2.5654-2.6611,8.5309,8.5309,0,0,0,.9512-4.1577A8.5329,8.5329,0,0,0,176.7034,37.6467Z" transform="translate(-24.5974 -19.8034)"/><rect class="cls-2" x="169.3876" y="22.8767" width="12.2875" height="12.2875"/></svg>