<?xml version="1.0" encoding="utf-8"?>
<!-- Generator: Adobe Illustrator 25.4.1, SVG Export Plug-In . SVG Version: 6.00 Build 0)  -->
<svg version="1.1" id="Layer_1" xmlns="http://www.w3.org/2000/svg" xmlns:xlink="http://www.w3.org/1999/xlink" x="0px" y="0px"
	 viewBox="0 0 181.7 35.6" style="enable-background:new 0 0 181.7 35.6;" xml:space="preserve">
<style type="text/css">
	.st0{fill:#FFFFFF;}
</style>
<path class="st0" d="M6.7,7.4v8.3h11.2V21H6.7v8.8h12.6v5.4H0V1.9h19.2v5.4H6.7z"/>
<path class="st0" d="M31.9,0v35.2h-6.7V0H31.9z"/>
<path class="st0" d="M62.8,24H43.5c0.1,1.7,0.8,3.3,2,4.5c1.2,1.1,2.7,1.7,4.3,1.6c2.2,0.1,4.3-1.1,5.3-3.2h7.2
	c-0.7,2.5-2.3,4.7-4.4,6.2c-2.3,1.7-5.1,2.5-7.9,2.4c-2.4,0-4.7-0.5-6.8-1.7c-2-1.1-3.6-2.8-4.7-4.8c-1.2-2.2-1.7-4.6-1.7-7.1
	c-0.1-2.5,0.5-5,1.7-7.2c1.1-2,2.7-3.7,4.7-4.8c4.3-2.2,9.3-2.2,13.6,0c1.9,1,3.6,2.6,4.6,4.6c1.1,2.1,1.7,4.4,1.6,6.8
	C63,22.3,62.9,23.1,62.8,24z M56.1,19.5c0-1.6-0.7-3.1-1.9-4.1c-1.2-1-2.8-1.6-4.4-1.5c-1.5,0-3,0.5-4.2,1.5
	c-1.2,1.1-1.9,2.6-2.1,4.2H56.1z"/>
<path class="st0" d="M67.8,14.8c1.1-2,2.7-3.6,4.6-4.8c2.1-1.1,4.4-1.7,6.7-1.7c2.9-0.1,5.8,0.7,8.1,2.4c2.2,1.7,3.7,4.1,4.3,6.9
	h-7.2c-0.3-1.1-1-2-1.9-2.7c-1-0.7-2.2-1-3.4-1c-1.7-0.1-3.4,0.7-4.5,2.1c-1.2,1.7-1.8,3.8-1.7,5.9c-0.1,2.1,0.5,4.1,1.7,5.8
	c1.1,1.4,2.8,2.1,4.5,2.1c2.4,0.2,4.6-1.3,5.3-3.6h7.2c-0.6,2.7-2.2,5.1-4.3,6.8c-2.3,1.7-5.2,2.6-8.1,2.5c-2.4,0-4.7-0.5-6.7-1.7
	c-2-1.1-3.6-2.8-4.6-4.8c-1.1-2.2-1.7-4.7-1.7-7.2C66,19.5,66.6,17.1,67.8,14.8z"/>
<path class="st0" d="M104.2,14.3V27c-0.1,0.7,0.2,1.4,0.6,1.9c0.6,0.5,1.4,0.7,2.2,0.6h3.1v5.6h-4.2c-5.6,0-8.4-2.7-8.4-8.2V14.3
	h-3.1V8.8h3.1V2.3h6.7v6.5h5.9v5.5L104.2,14.3z"/>
<path class="st0" d="M124.9,9.6c1.4-0.8,3.1-1.2,4.7-1.2v7h-1.8c-1.7-0.1-3.4,0.4-4.7,1.5c-1.1,1-1.6,2.7-1.6,5.1v13.1h-6.7V8.8h6.7
	v4.1C122.3,11.6,123.5,10.4,124.9,9.6z"/>
<path class="st0" d="M133.9,14.8c1-2,2.5-3.6,4.3-4.8c1.8-1.1,4-1.7,6.1-1.7c1.8,0,3.6,0.4,5.2,1.2c1.4,0.7,2.6,1.7,3.5,3V8.8h6.7
	v26.3h-6.7v-3.8c-0.9,1.3-2.1,2.3-3.5,3.1c-1.6,0.8-3.4,1.2-5.2,1.2c-2.1,0-4.2-0.6-6.1-1.7c-1.9-1.2-3.4-2.8-4.3-4.8
	c-1.1-2.2-1.6-4.7-1.6-7.2C132.3,19.5,132.8,17,133.9,14.8z M152.1,17.8c-0.6-1.1-1.5-2-2.6-2.7c-1.1-0.6-2.3-0.9-3.5-0.9
	c-2.5,0-4.8,1.3-6,3.5c-0.7,1.3-1,2.7-1,4.1c0,1.4,0.3,2.9,1,4.2c0.6,1.1,1.5,2.1,2.6,2.7c1,0.6,2.2,1,3.4,1c1.2,0,2.4-0.3,3.5-0.9
	c1.1-0.6,2-1.6,2.6-2.7c0.7-1.3,1-2.7,1-4.2C153.1,20.6,152.8,19.1,152.1,17.8z"/>
<rect x="169.4" y="22.9" class="st0" width="12.3" height="12.3"/>
</svg>
