<svg width="29" height="29" viewBox="0 0 29 29" fill="none" xmlns="http://www.w3.org/2000/svg">
<path d="M13.1608 18.8275C13.0999 18.8948 13.0431 18.9658 12.9908 19.04C12.9372 19.119 12.8943 19.2047 12.8633 19.295C12.8225 19.3753 12.7938 19.4612 12.7783 19.55C12.7714 19.6443 12.7714 19.739 12.7783 19.8333C12.7736 20.0192 12.8124 20.2035 12.8917 20.3717C12.9553 20.5475 13.0568 20.7071 13.189 20.8393C13.3212 20.9715 13.4809 21.073 13.6567 21.1367C13.8263 21.2116 14.0096 21.2503 14.195 21.2503C14.3804 21.2503 14.5638 21.2116 14.7333 21.1367C14.9091 21.073 15.0688 20.9715 15.201 20.8393C15.3332 20.7071 15.4347 20.5475 15.4983 20.3717C15.5612 20.1994 15.5901 20.0166 15.5833 19.8333C15.5844 19.6469 15.5487 19.4621 15.4782 19.2895C15.4077 19.1169 15.3038 18.9599 15.1725 18.8275C15.0408 18.6947 14.8841 18.5893 14.7115 18.5174C14.5389 18.4455 14.3537 18.4085 14.1667 18.4085C13.9797 18.4085 13.7945 18.4455 13.6219 18.5174C13.4492 18.5893 13.2925 18.6947 13.1608 18.8275ZM14.1667 0C11.3648 0 8.62579 0.830861 6.29609 2.38751C3.9664 3.94417 2.15062 6.1567 1.07838 8.74532C0.00613821 11.3339 -0.274409 14.1824 0.272215 16.9304C0.818839 19.6785 2.16808 22.2028 4.14933 24.184C6.13057 26.1653 8.65483 27.5145 11.4029 28.0611C14.151 28.6077 16.9994 28.3272 19.588 27.255C22.1766 26.1827 24.3892 24.3669 25.9458 22.0372C27.5025 19.7075 28.3333 16.9686 28.3333 14.1667C28.3333 12.3063 27.9669 10.4641 27.255 8.74532C26.543 7.02654 25.4995 5.46482 24.184 4.14932C22.8685 2.83382 21.3068 1.79031 19.588 1.07837C17.8692 0.366432 16.0271 0 14.1667 0ZM14.1667 25.5C11.9252 25.5 9.73397 24.8353 7.87021 23.59C6.00645 22.3447 4.55383 20.5746 3.69604 18.5037C2.83825 16.4328 2.61381 14.1541 3.05111 11.9556C3.48841 9.75719 4.5678 7.73778 6.1528 6.15279C7.73779 4.56779 9.7572 3.4884 11.9557 3.0511C14.1541 2.6138 16.4329 2.83824 18.5038 3.69603C20.5746 4.55383 22.3447 6.00645 23.59 7.8702C24.8353 9.73396 25.5 11.9251 25.5 14.1667C25.5 17.1725 24.306 20.0551 22.1806 22.1805C20.0551 24.306 17.1725 25.5 14.1667 25.5ZM14.1667 7.08333C13.4202 7.08285 12.6867 7.279 12.0401 7.65204C11.3935 8.02508 10.8566 8.56185 10.4833 9.20833C10.3808 9.36958 10.312 9.54988 10.281 9.73842C10.25 9.92695 10.2574 10.1198 10.3029 10.3054C10.3484 10.491 10.4309 10.6654 10.5455 10.8183C10.6601 10.9711 10.8045 11.0992 10.9699 11.1948C11.1353 11.2905 11.3184 11.3516 11.5081 11.3747C11.6977 11.3977 11.8901 11.3821 12.0736 11.3289C12.2571 11.2757 12.4279 11.1859 12.5758 11.0649C12.7237 10.9439 12.8456 10.7943 12.9342 10.625C13.059 10.4088 13.2387 10.2294 13.4551 10.1051C13.6716 9.98066 13.917 9.91567 14.1667 9.91667C14.5424 9.91667 14.9027 10.0659 15.1684 10.3316C15.4341 10.5973 15.5833 10.9576 15.5833 11.3333C15.5833 11.7091 15.4341 12.0694 15.1684 12.3351C14.9027 12.6007 14.5424 12.75 14.1667 12.75C13.791 12.75 13.4306 12.8993 13.1649 13.1649C12.8993 13.4306 12.75 13.7909 12.75 14.1667V15.5833C12.75 15.9591 12.8993 16.3194 13.1649 16.5851C13.4306 16.8507 13.791 17 14.1667 17C14.5424 17 14.9027 16.8507 15.1684 16.5851C15.4341 16.3194 15.5833 15.9591 15.5833 15.5833V15.3283C16.5203 14.9884 17.3079 14.3299 17.8086 13.4681C18.3093 12.6062 18.4911 11.5958 18.3223 10.6135C18.1535 9.63119 17.6449 8.73944 16.8852 8.09415C16.1256 7.44885 15.1634 7.09107 14.1667 7.08333Z" fill="black"/>
</svg>
